<svg width="66" height="79" viewBox="0 0 66 79" fill="none" xmlns="http://www.w3.org/2000/svg">
<path d="M13.9614 69.4736H21.3041V59.3581C16.2344 59.3581 11.9162 57.7576 8.34955 54.5567C4.78301 51.4182 3 47.58 3 43.0427C3 38.5678 4.78301 34.7139 8.34955 31.482C11.4765 28.7032 15.1824 27.1418 19.4684 26.7978C19.5843 22.7423 21.2099 19.2078 24.3462 16.1918C27.7377 12.8979 31.9862 11.1576 37.0909 10.971C42.1261 10.7843 46.5315 12.2144 50.3077 15.2599L63 3H52.3007M50.3076 15.2599C54.014 18.3366 55.9545 22.128 56.1295 26.634C56.3741 31.0777 54.7831 34.9933 51.3565 38.3811C48.1471 41.4644 44.2486 43.1812 39.6607 43.5324C39.529 47.8591 37.7461 51.5341 34.3112 54.557C30.7101 57.7579 26.3744 59.3584 21.3042 59.3584M63 12.5098V3.00028M28.6469 69.4739H21.3042V76M39.6608 43.5324C39.2956 43.5675 38.9286 43.5909 38.5597 43.602C33.4894 43.7574 29.0841 42.3124 25.343 39.267C21.6716 36.2215 19.7137 32.4457 19.4684 27.9394C19.4538 27.5551 19.4538 27.174 19.4684 26.7974C20.0672 26.7506 20.6789 26.7272 21.3041 26.7272C26.4089 26.7272 30.7446 28.312 34.3111 31.4817C37.8776 34.7138 39.6606 38.5676 39.6606 43.0423V43.532L39.6608 43.5324Z" stroke="#CC0035" stroke-width="5" stroke-linecap="round" stroke-linejoin="round"/>
</svg>
