<svg width="50" height="63" viewBox="0 0 50 63" fill="none" xmlns="http://www.w3.org/2000/svg">
<path d="M25.003 3.46312C30.8006 -1.3214 39.6389 -1.3214 45.5078 4.5483C51.3775 10.418 51.514 19.8845 45.8054 25.9538C38.5148 33.2588 32.9843 37.8816 28.9486 39.8674L36.1832 44.6895L34.2904 47.5281L26.708 42.4718C26.708 48.4578 23.296 51.7659 23.296 54.6377C23.296 56.2865 24.336 58.4883 26.2116 60.2588L23.7922 62.6633C21.2244 60.0806 19.8844 57.4002 19.8844 54.6375C19.8844 50.6059 23.2958 47.5279 23.2958 42.4716L15.7134 47.5279L13.8207 44.6894L21.0548 39.8667C17.9284 38.6284 12.298 33.9787 4.16436 25.9171C-1.50942 19.8853 -1.37286 10.4186 4.49676 4.54815C9.90209 -0.857185 18.7309 -1.62758 25.0016 3.46297L25.003 3.46312Z" fill="#CC0035"/>
</svg>
