<svg width="60" height="52" viewBox="0 0 60 52" fill="none" xmlns="http://www.w3.org/2000/svg">
<path d="M31.6656 3.04905C37.3905 -1.05342 47.6767 -1.69058 54.7439 5.37673C61.8106 12.4435 61.7313 25.457 54.6284 34.3767C45.4271 45.8442 37.2804 51.6647 30.0004 51.6647C22.7204 51.6647 14.5735 45.845 5.36818 34.3724C-1.73084 25.4562 -1.81011 12.4425 5.25659 5.37673C11.5293 -0.896024 21.2163 -1.67216 28.3334 3.0479V6.13657L19.179 18.956L34.9287 26.8306L22.3408 34.6979L28.821 41.1782L31.1777 38.8215L27.6583 35.3011L41.7336 26.5077L24.1571 17.7176L31.6656 7.20736L31.6656 3.04905Z" fill="#CC0035"/>
</svg>
