<svg width="60" height="57" viewBox="0 0 60 57" fill="none" xmlns="http://www.w3.org/2000/svg">
<path d="M22.934 0C29.9077 0 35.8036 5.7623 35.8042 12.8696L35.8036 20.9679C37.6861 21.548 44.1104 23.9724 45.6757 32.2145C49.6768 27.9593 55.1255 28.3148 57.8531 31.0354C60.2532 33.4285 60.7505 37.0557 58.7865 40.2181C60.3997 42.7422 60.57 46.6913 57.8531 49.4007C55.2137 51.9296 48.8838 53.8838 42.044 44.2686C34.8231 52.5242 28.8469 56.299 22.9269 56.3055C17.0067 56.3108 10.7327 52.3168 4.06624 44.5373C-1.32927 38.8019 -1.39284 30.0947 4.10017 24.6026C5.85717 22.8456 7.90456 21.6347 10.0617 20.9694L10.0639 12.87C10.0639 5.76219 15.8256 0.000440796 22.9335 0.000440796L22.934 0ZM24.5429 35.3923H21.3257V45.0446H24.5429V41.8214L43.8365 41.8274C44.4403 40.8002 44.9095 39.7197 45.2434 38.6107L24.5433 38.6042L24.5429 35.3923ZM22.934 3.21698C17.7244 3.21698 13.2801 7.4156 13.2817 12.8693L13.2801 20.3854C15.162 20.2825 18.9212 20.3784 22.9324 23.5725C24.8015 22.1046 27.736 20.1758 32.5864 20.3784V12.8693C32.5848 7.53736 28.1437 3.21698 22.934 3.21698Z" fill="#CC0035"/>
</svg>
