<svg width="60" height="61" viewBox="0 0 60 61" fill="none" xmlns="http://www.w3.org/2000/svg">
<path d="M19.4122 10.7511C19.4122 4.81312 24.152 0 30.0004 0C35.8485 0 40.5887 4.81269 40.5887 10.7511C40.5887 16.6892 35.8489 21.5023 30.0004 21.5023C24.1524 21.5023 19.4122 16.6896 19.4122 10.7511ZM33.5861 4.57596C32.5351 3.94531 31.3093 3.58367 30.0001 3.58367C26.1011 3.58367 22.9412 6.79213 22.9412 10.7511C22.9412 12.0804 23.2974 13.3251 23.9185 14.3923L33.5861 4.57596ZM36.0817 7.11002L26.4143 16.9262C27.4652 17.5564 28.691 17.9185 30.0002 17.9185C33.8992 17.9185 37.0591 14.7101 37.0591 10.751C37.0591 9.42173 36.7029 8.17706 36.0818 7.10993L36.0817 7.11002ZM50.294 42.108C55.6544 42.108 60 46.5205 60 51.9634V59.1309C60 60.1202 59.2098 60.9225 58.2355 60.9225H38.8234C37.8491 60.9225 37.0589 60.1202 37.0589 59.1309V51.9634C37.0589 46.5205 41.4045 42.108 46.7645 42.108H50.294ZM13.2355 42.108C18.5955 42.108 22.9411 46.5205 22.9411 51.9634V59.1309C22.9411 60.1202 22.151 60.9225 21.1766 60.9225H1.76453C0.790197 60.9225 0 60.1202 0 59.1309V51.9634C0 46.5205 4.34559 42.108 9.70604 42.108H13.2355ZM48.5292 39.4201C44.6306 39.4201 41.4704 36.2112 41.4704 32.2527C41.4704 28.2945 44.6306 25.0856 48.5292 25.0856C52.4278 25.0856 55.5881 28.2945 55.5881 32.2527C55.5881 36.2112 52.4278 39.4201 48.5292 39.4201ZM11.4708 39.4201C7.57219 39.4201 4.41191 36.2112 4.41191 32.2527C4.41191 28.2945 7.57219 25.0856 11.4708 25.0856C15.3694 25.0856 18.5296 28.2945 18.5296 32.2527C18.5296 36.2112 15.3694 39.4201 11.4708 39.4201Z" fill="#CC0035"/>
</svg>
