<svg width="60" height="58" viewBox="0 0 60 58" fill="none" xmlns="http://www.w3.org/2000/svg">
<path d="M13.7756 29.5257C13.5425 29.5257 13.3242 29.4106 13.1916 29.2189C13.0594 29.0271 13.0303 28.7827 13.1135 28.5653C13.5864 27.3144 14.5062 27.2673 14.6092 27.2673C15.0011 27.2403 15.3406 27.5353 15.3676 27.9264C15.3946 28.3171 15.099 28.6563 14.7072 28.6833C14.6751 28.6997 14.5534 28.7811 14.4386 29.0811L14.439 29.0807C14.3305 29.3512 14.0674 29.5278 13.7756 29.5257Z" fill="#CC0035"/>
<path d="M46.5991 29.5332C46.3047 29.5332 46.0408 29.352 45.9357 29.0777C45.8174 28.778 45.6992 28.6967 45.6663 28.6799C45.2744 28.6525 44.9788 28.3136 45.0062 27.9225C45.0337 27.5315 45.3736 27.2365 45.7655 27.2639C45.8673 27.2639 46.7823 27.3182 47.2612 28.5618C47.3444 28.7797 47.3153 29.0241 47.1831 29.2159C47.0505 29.4076 46.8322 29.5223 46.5991 29.5227L46.5991 29.5332Z" fill="#CC0035"/>
<path d="M28.8506 56.4032C28.8506 51.0191 26.934 46.2494 25.7916 43.8842C24.8326 41.9005 23.5569 39.8283 22.3948 38.6542C21.883 37.1628 21.4713 35.3502 21.8522 34.1833C22.2331 33.0164 23.6921 31.283 24.2431 30.6256L24.3884 30.4532C26.5627 27.8361 27.4119 25.0547 26.9102 22.1848C26.4478 19.5356 24.9001 17.356 23.673 15.9885H23.6849C24.2022 15.7541 24.5353 15.2408 24.5391 14.674C24.5425 14.1072 24.2157 13.5896 23.7013 13.349C23.141 13.0899 22.527 12.9685 21.9101 12.995C21.7944 12.5711 21.6292 12.1619 21.4181 11.7758C21.1356 11.2676 20.5795 10.9739 19.9992 11.0265C19.4342 11.0678 18.9465 11.4383 18.7556 11.9705V11.9815C18.7252 12.0649 18.6619 12.1328 18.5804 12.169C18.4921 12.2086 18.3916 12.212 18.3013 12.177C15.1844 11.0113 11.8383 11.8951 8.88489 12.676C6.76509 13.2365 4.76171 13.765 3.20945 13.4489V13.4493C2.29817 13.2635 1.35526 13.564 0.720154 14.242C0.0850458 14.9205 -0.151008 15.8797 0.0964514 16.7744C0.370083 17.7766 0.964652 18.6616 1.78935 19.295C2.24499 19.6414 2.76228 19.8989 3.31383 20.0535C2.89112 21.9095 2.87297 23.8342 3.25935 25.6977C3.35395 26.1768 2.7049 26.7997 2.18212 27.3C1.62514 27.8344 1.14416 28.2946 1.08001 28.8942C0.972328 29.8997 1.47357 30.3869 1.87685 30.7822C2.24001 31.1362 2.65258 31.5362 2.941 32.532H2.94142C3.11329 33.1658 3.24546 33.8094 3.33752 34.4592C3.66141 36.4652 4.02921 38.7459 7.69583 38.5571H7.69541C8.16794 38.5301 8.6375 38.4703 9.10161 38.378C10.1113 38.1985 10.5763 38.142 11.0229 38.614C11.3527 38.968 12.1711 40.2909 12.8366 42.1965V42.1961C12.3881 42.5956 11.9878 43.0461 11.6437 43.538C10.7674 44.868 7.88707 49.6883 7.33639 56.1951C7.33639 56.2449 7.32795 56.4948 7.32795 56.4948C7.32499 56.681 7.39678 56.861 7.52769 56.9937C7.65859 57.1269 7.83722 57.2024 8.0243 57.2028H28.1197C28.4642 57.1935 28.756 56.9453 28.8194 56.6069C28.8375 56.5403 28.8477 56.4716 28.8502 56.4029L28.8506 56.4032ZM12.0611 37.6506C11.0679 36.5886 9.89143 36.7963 8.85213 36.9813C8.44927 37.0622 8.04093 37.1154 7.63045 37.1398C5.22687 37.2637 5.07315 36.3138 4.73695 34.2311C4.69683 33.9774 4.65292 33.7094 4.60224 33.4333H4.60266C4.99243 33.3431 5.39486 33.3166 5.7931 33.3554C6.1816 33.4097 6.54012 33.14 6.59501 32.7523C6.64949 32.365 6.3788 32.0068 5.99073 31.9524C5.41812 31.8901 4.83922 31.925 4.27838 32.0561C4.02965 31.1749 3.53811 30.381 2.85952 29.7648C2.50481 29.4193 2.45286 29.3565 2.48115 29.064C2.54281 28.9119 2.91146 28.5579 3.15764 28.3231V28.3227C3.57021 27.9569 3.93971 27.5452 4.25857 27.0955C4.38905 27.1178 4.52123 27.1292 4.6534 27.1284C5.24797 27.1094 5.82772 26.9371 6.3357 26.6281C6.66044 26.4183 6.75671 25.9872 6.55191 25.6597C6.34711 25.3318 5.9168 25.2286 5.58489 25.4271C5.31041 25.5872 5.00257 25.6833 4.68544 25.7078C4.68079 25.6112 4.66897 25.5147 4.64997 25.4199C4.51652 24.7473 4.43756 24.065 4.41349 23.3798C4.79608 23.3777 5.17824 23.4009 5.55787 23.4493C5.9468 23.4991 6.30235 23.2243 6.35176 22.8362C6.40159 22.4484 6.12627 22.0936 5.73777 22.0439C5.30958 21.9912 4.87885 21.9642 4.44766 21.9638C4.49453 21.413 4.58195 20.8664 4.70906 20.3282L5.13133 20.3813C6.73807 20.576 7.89932 20.7176 8.49184 22.7165C8.5594 22.9407 8.62444 23.1742 8.69158 23.4127C9.17509 25.1237 9.72151 27.0589 11.0834 27.9145H11.0829C11.1454 27.9591 11.2134 27.9945 11.2852 28.0207C11.463 28.083 11.6581 28.0721 11.8278 27.9907C11.9972 27.9094 12.1277 27.764 12.1897 27.5866C12.9786 25.3446 14.7767 25.793 14.7909 25.7976C16.0181 26.1221 16.7254 27.4778 16.3706 28.8209C16.0159 30.1636 14.0887 31.4511 12.8826 31.1325C12.5076 31.0427 12.1297 31.2686 12.0317 31.6403C11.9333 32.0124 12.1504 32.3946 12.5207 32.5013C12.777 32.5687 13.0409 32.6024 13.3057 32.6016C14.6561 32.6016 16.0501 31.7756 16.9285 30.7005H16.9289C17.1442 31.0179 17.3343 31.352 17.4964 31.7001C17.9858 32.6821 18.5344 33.7803 20.3447 34.4437C20.1995 35.4551 20.3591 36.6102 20.6272 37.6874C19.4448 37.743 17.4183 38.9086 16.236 39.6545C15.8247 39.9141 14.9248 40.5008 14 41.2193C13.3024 39.3877 12.4852 38.1003 12.0654 37.6507L12.0611 37.6506Z" fill="#CC0035"/>
<path d="M57.8321 27.1414C59.6116 25.2901 60.3447 22.7552 59.848 20.0758C59.2889 17.0563 57.2916 14.5829 54.6338 13.6237V13.6233C54.453 13.5554 54.2888 13.4496 54.1524 13.3131C51.8716 11.0711 47.6965 9.94879 43.7638 10.5258C39.7024 11.1158 36.3752 13.4391 34.396 17.0499C34.176 17.4499 33.9974 17.8962 33.7812 18.3479C32.2132 21.5929 29.5529 36.2418 30.9882 43.6827V43.6831C31.2813 45.2306 31.9227 46.6913 32.8648 47.9547C32.0101 50.383 31.2711 53.3827 31.2711 56.5013C31.2711 56.8924 31.5887 57.2093 31.9805 57.2093H50.4727C50.8629 57.1785 51.1547 56.838 51.1239 56.4482C51.023 55.2062 50.8562 53.971 50.6252 52.7464C50.9875 52.5998 51.2827 52.3246 51.4541 51.9735C51.6256 51.6225 51.661 51.2209 51.5538 50.8454C51.4469 50.4699 51.2045 50.1475 50.8735 49.9393C50.5644 49.7459 50.2671 49.5398 49.9808 49.3211C51.2519 48.9679 52.4519 48.3973 53.5279 47.6349C53.7952 47.4491 54.0017 47.1886 54.1212 46.886C54.2411 46.5835 54.2686 46.2526 54.2006 45.9345C54.1406 45.6201 53.9894 45.3297 53.766 45.1005C53.5422 44.8708 53.2559 44.7119 52.9426 44.6436C51.506 44.3225 50.1049 43.2723 48.985 41.6936C48.0227 40.3282 47.3994 38.7225 47.2305 37.2097C47.3365 37.1536 47.459 37.1372 47.5759 37.1637C48.0582 37.2817 48.646 37.5177 49.2693 37.7739C50.2224 38.1646 51.2084 38.5679 52.0504 38.5999C55.8188 38.7921 56.1888 36.457 56.527 34.3957L56.5266 34.3953C56.6187 33.724 56.7538 33.0598 56.9307 32.4058C57.2335 31.3746 57.6604 30.9591 58.0375 30.5932C58.4703 30.1718 58.9623 29.6952 58.8521 28.6698C58.7908 28.0963 58.3555 27.6458 57.8318 27.1417L57.8321 27.1414ZM57.0479 29.5735C56.3584 30.1989 55.8575 31.0047 55.6021 31.8994C54.9699 31.8813 54.3398 31.9816 53.7444 32.1957C53.3956 32.3196 53.1954 32.6849 53.2786 33.0453C53.3593 33.3588 53.6426 33.5775 53.9669 33.5771C54.0539 33.5771 54.1405 33.5611 54.222 33.5299C54.5569 33.4064 54.9086 33.3352 55.265 33.3188C55.2106 33.6112 55.1645 33.8936 55.1219 34.1612C54.7672 36.3193 54.6168 37.3059 52.1114 37.1761C51.5118 37.1512 50.644 36.7959 49.8045 36.4516C49.1576 36.1874 48.4886 35.9135 47.8949 35.7744H47.8954C47.4351 35.6695 46.9524 35.7365 46.5386 35.9624C46.1247 36.1887 45.808 36.5583 45.6488 37.0016C45.3321 37.8782 45.0137 39.1741 44.7633 40.3149C44.6581 40.2289 44.553 40.1438 44.4466 40.0599L44.4462 40.0603C43.8448 37.3842 43.792 34.6146 44.2912 31.9183C44.8714 32.3528 45.5758 32.5905 46.3013 32.5968C46.5686 32.5968 46.8346 32.564 47.0935 32.4986C47.4579 32.4152 47.6999 32.07 47.6538 31.7C47.6243 31.5007 47.5111 31.3233 47.3426 31.2124C47.1737 31.1016 46.9659 31.0679 46.7708 31.1193C46.194 31.2655 45.5817 31.1345 45.1156 30.7653C44.5801 30.3544 44.1979 29.7766 44.0299 29.1238C43.8331 28.3905 43.9344 27.6092 44.3128 26.9505C44.5691 26.5016 44.9986 26.1776 45.5011 26.0537C45.7173 26.0031 47.6294 25.6183 48.3235 27.6492L48.3231 27.6488C48.4409 28.012 48.8214 28.2219 49.1922 28.1279C49.3687 28.0803 49.5194 27.9653 49.6119 27.8081C49.7568 27.5696 49.9544 27.3677 50.19 27.2181C51.2626 26.5278 52.0075 25.4965 52.3656 24.1902C53.0337 21.7547 53.9027 20.4057 55.2354 19.8595C55.3592 20.3244 55.4483 20.7976 55.5015 21.2755C54.9685 21.2553 54.4348 21.2772 53.9052 21.3404C53.5458 21.3775 53.2684 21.6729 53.2549 22.0332C53.2532 22.222 53.3271 22.4041 53.4601 22.5385C53.5936 22.673 53.7752 22.7484 53.9643 22.7484C53.9943 22.7501 54.0243 22.7501 54.0543 22.7484C54.55 22.6869 55.0509 22.6692 55.55 22.6953C55.5149 23.4412 55.4157 24.1825 55.2531 24.9112L55.2164 25.0953C55.1894 25.2302 55.1767 25.3672 55.1788 25.505C54.8608 25.4746 54.5534 25.3756 54.2777 25.2146C53.9458 25.0064 53.5074 25.1067 53.2992 25.438C53.0911 25.7696 53.1911 26.2066 53.5235 26.4144C54.0488 26.7267 54.6446 26.9012 55.2556 26.9218C55.3946 26.9222 55.5335 26.9104 55.6703 26.8864C55.9849 27.3142 56.3413 27.7095 56.7344 28.0665C56.992 28.313 57.3776 28.6826 57.438 28.8406C57.4747 29.15 57.4109 29.2195 57.0478 29.5735L57.0479 29.5735Z" fill="#CC0035"/>
<path d="M30.3241 7.68555C30.3853 7.47821 30.3148 7.25485 30.1455 7.12042L28.7195 5.98427V5.98385C28.2398 5.60583 28.0569 4.96316 28.2655 4.38963L29.2528 1.64869C29.4167 1.19143 29.2249 0.683616 28.8001 0.447595C28.2816 0.154276 27.6954 0.000463349 27.0997 4.25955e-05C25.0732 4.25955e-05 23.6957 1.76203 23.6957 3.93452C23.6957 5.23249 24.3899 7.33626 25.7484 8.60392C27.1068 9.87114 28.3424 10.4919 29.1384 10.7718L29.138 10.7713C29.2034 10.7945 29.2756 10.7899 29.3377 10.7583C29.3998 10.7271 29.4458 10.6715 29.4657 10.6049C29.643 9.98538 30.116 8.38902 30.3242 7.68561L30.3241 7.68555Z" fill="#CC0035"/>
<path d="M33.0602 0C32.4622 0.000421509 31.8744 0.155086 31.3542 0.449667C31.1431 0.569776 30.9843 0.763636 30.9083 0.993734L29.7588 4.4027C29.6646 4.68211 29.7554 4.99059 29.986 5.17433L31.3078 6.22706C31.7639 6.58696 31.9535 7.18791 31.7866 7.74339L30.9269 10.6415H30.9273C30.9168 10.6765 30.9273 10.7144 30.9539 10.7393C30.9809 10.7642 31.0194 10.7722 31.0536 10.7595C31.8492 10.4717 33.0637 9.8661 34.4174 8.60138C35.7712 7.3362 36.4655 5.2333 36.4655 3.93446C36.4655 1.76197 35.088 0 33.0602 0Z" fill="#CC0035"/>
</svg>
