<svg width="225" height="70" viewBox="0 0 225 70" fill="none" xmlns="http://www.w3.org/2000/svg">
<path d="M76.7477 26.2584H78.085V31.7442H64.9798V26.2584H66.9857L66.4508 23.5824H61.9041L61.3692 26.2584H63.3751V31.7442H51.9415V26.2584H53.2788L58.9287 5.71997H71.0978L76.7477 26.2584ZM62.6396 20.0366H65.7153L64.3446 13.3801H64.0103L62.6396 20.0366Z" fill="#FF0143"/>
<path d="M100.072 5.71997H111.037V11.2058H109.366V31.7442H99.9714L90.176 16.6582V26.2584H91.7807V31.7442H80.8151V26.2584H82.4867V11.2058H80.8151V5.71997H92.8839L101.676 19.1335V11.2058H100.072V5.71997Z" fill="#FF0143"/>
<path d="M113.992 26.2584H115.664V11.2392H113.992V5.71997H127.565C131.287 5.71997 134.24 6.74578 136.425 8.79739C138.631 10.8267 139.734 14.1383 139.734 18.7321C139.734 23.3259 138.631 26.6486 136.425 28.7002C134.24 30.7295 131.287 31.7442 127.565 31.7442H113.992V26.2584ZM126.964 26.2584C127.721 26.2584 128.29 26.0577 128.669 25.6563C129.047 25.2549 129.237 24.6305 129.237 23.7831V13.6811C129.237 12.0309 128.479 11.2058 126.964 11.2058H125.024V26.2584H126.964Z" fill="#FF0143"/>
<path d="M142.533 26.2584H144.205V11.2058H142.533V5.71997H157.878C160.753 5.71997 162.948 6.31093 164.464 7.49283C165.98 8.67474 166.737 10.5925 166.737 13.2463C166.737 14.7404 166.437 16.0338 165.835 17.1265C165.233 18.2192 164.375 18.9774 163.261 19.4011L163.294 19.7356C165.434 20.0701 166.503 21.3858 166.503 23.6827V26.2584H168.075V31.7442H157.477V23.8834C157.477 23.0137 157.343 22.3558 157.076 21.9098C156.831 21.4638 156.429 21.1628 155.872 21.0067C155.337 20.8506 154.568 20.7725 153.565 20.7725V26.2584H155.772V31.7442H142.533V26.2584ZM155.371 16.6916C156.017 16.6916 156.496 16.5244 156.808 16.1899C157.143 15.8331 157.31 15.2867 157.31 14.5508V13.3466C157.31 12.6107 157.143 12.0755 156.808 11.741C156.496 11.3842 156.017 11.2058 155.371 11.2058H153.565V16.6916H155.371Z" fill="#FF0143"/>
<path d="M170.943 31.7442V26.2584H172.615V11.2058H170.943V5.71997H193.51V15.8219H186.021V11.2058H181.976V16.4909H184.918V20.3042H181.976V26.2584H186.021V20.9732H193.51V31.7442H170.943ZM178.733 3.71297V3.21121L182.377 0H190.768V0.869704L185.319 3.71297H178.733Z" fill="#FF0143"/>
<path d="M85.1502 62.0612H86.9332V69.3756H69.4596V62.0612H72.1342L71.421 58.4932H65.3587L64.6455 62.0612H67.32V69.3756H52.0752V62.0612H53.8583L61.3915 34.6766H77.617L85.1502 62.0612ZM66.3394 53.7655H70.4403L68.6127 44.8901H68.167L66.3394 53.7655Z" fill="#FF0143"/>
<path d="M92.8022 62.0612H95.031V41.9911H92.8022V34.6766H113.262C117.096 34.6766 120.023 35.4646 122.044 37.0405C124.064 38.6163 125.075 41.1734 125.075 44.7117C125.075 46.7038 124.674 48.4284 123.871 49.8853C123.069 51.3423 121.925 52.3532 120.439 52.9181L120.484 53.3641C123.336 53.8101 124.763 55.5644 124.763 58.627V62.0612H126.858V69.3756H112.727V58.8946C112.727 57.735 112.549 56.8578 112.193 56.2631C111.866 55.6685 111.331 55.2671 110.588 55.0589C109.875 54.8508 108.849 54.7467 107.512 54.7467V62.0612H110.454V69.3756H92.8022V62.0612ZM109.919 49.3055C110.781 49.3055 111.42 49.0825 111.836 48.6365C112.282 48.1608 112.505 47.4323 112.505 46.4511V44.8455C112.505 43.8643 112.282 43.1507 111.836 42.7047C111.42 42.2289 110.781 41.9911 109.919 41.9911H107.512V49.3055H109.919Z" fill="#FF0143"/>
<path d="M132.911 69.3756V62.0612H135.14V41.9911H132.911V34.6766H149.85V41.9911H147.621V62.0612H149.85V69.3756H132.911Z" fill="#FF0143"/>
<path d="M189.697 58.2256H187.468V67.1456C186.161 67.8889 184.244 68.5579 181.718 69.1526C179.222 69.7175 176.518 70 173.605 70C168.048 70 163.695 68.5431 160.545 65.6292C157.395 62.6856 155.82 58.1512 155.82 52.0261C155.82 45.7524 157.38 41.1883 160.5 38.3339C163.65 35.4795 168.137 34.0522 173.962 34.0522C176.785 34.0522 179.43 34.3496 181.896 34.9443C184.363 35.5389 186.22 36.2079 187.468 36.9513V47.6107H176.324V45.5145C176.324 44.2657 176.057 43.3737 175.522 42.8385C175.017 42.2735 174.2 41.9911 173.07 41.9911C171.941 41.9911 171.109 42.2735 170.574 42.8385C170.069 43.3737 169.816 44.2657 169.816 45.5145V58.5378C169.816 59.7866 170.069 60.6934 170.574 61.2584C171.109 61.7936 171.941 62.0612 173.07 62.0612C174.2 62.0612 175.017 61.7936 175.522 61.2584C176.057 60.6934 176.324 59.7866 176.324 58.5378V58.2256H173.917V51.5801H189.697V58.2256Z" fill="#FF0143"/>
<path d="M223.217 62.4096H225V69.724H207.526V62.4096H210.201L209.488 58.8416H203.425L202.712 62.4096H205.387V69.724H190.142V62.4096H191.925L199.545 27.5629H214.901L223.217 62.4096ZM204.072 54.114H208.507V36.6223H206.51L204.072 54.114Z" fill="#FF0143"/>
<path d="M49.1667 41.8461H46.9379V61.9162H49.1667V69.2307H32.3172V61.9162H34.4568V46.3061L26.879 69.2307H20.2818L12.4811 46.5292V61.9162H14.6207V69.2307H0V61.9162H2.22877V41.8461H0V27.5629H20.2818L25.0514 48.447L29.4755 27.5629H49.1667V41.8461Z" fill="#FF0143"/>
</svg>
